<?xml version="1.0" encoding="UTF-8"?>
<svg width="8px" height="6px" viewBox="0 0 8 6" version="1.1" xmlns="http://www.w3.org/2000/svg" xmlns:xlink="http://www.w3.org/1999/xlink">
    <title>icon</title>
    <g id="Symbols" stroke="none" stroke-width="1" fill="none" fill-rule="evenodd">
        <g id="Group" transform="translate(-4.000000, -5.000000)">
            <g id="Group-5" transform="translate(8.000000, 8.000000) scale(1, -1) translate(-8.000000, -8.000000) ">
                <polygon id="Fill-1" fill="#FFFFFF" opacity="0" points="0 16 16 16 16 0 0 0"></polygon>
                <path d="M11.7624933,9.10746115 C12.0457139,9.38628132 12.0806131,9.87909793 11.8403454,10.2079027 C11.708131,10.3898777 11.5188699,10.4843798 11.3289376,10.4843798 C11.1752468,10.4843798 11.0208849,10.4234611 10.8947108,10.2984997 L7.99727009,7.32597988 L5.12076896,10.2984997 C4.99258144,10.4336142 4.83150812,10.5 4.67110593,10.5 C4.48788502,10.5 4.30533525,10.412527 4.17244976,10.2414861 C3.92479952,9.92127241 3.94627597,9.4276748 4.2214429,9.13870151 L7.50465417,5.69913836 C7.50465417,5.69913836 7.92612938,5.2547443 8.39189974,5.6936713 L11.7624933,9.10746115 Z" id="Fill-3" fill="#637480"></path>
            </g>
        </g>
    </g>
</svg>